# xmcd
#
# Track frame offsets: 
#        150
#        15593
#        30594
#        43820
#        57634
#        73553
#        95490
#        111281
#        127092
#        141092
#        157236
#        175086
#        188883
#        206549
#        219622
#        239571
#        254489
#        269884
#        286612
#        302829
#        318793
#        332581
#
# Disc length: 4645 seconds
#
# Revision: 0
# Processed by: cddbd v1.5.2PL0 Copyright (c) Steve Scherf et al.
# Submitted via: ExactAudioCopy v1.0b3
#
DISCID=56122316
DTITLE=Various Artist - Double Cream - Twenty Years of Nashville Numbe
DTITLE=r 1 Hits 5
DYEAR=2012
DGENRE=Country
TTITLE0=Tim McGraw - I Like It, I Love It
TTITLE1=Jo Dee Messina - Bye-Bye
TTITLE2=Luke Bryan - Rain Is A Good Thing
TTITLE3=Darius Rucker - Don't Think I Don't Think About It
TTITLE4=Steve Holy - Good Morning Beautiful
TTITLE5=Deana Carter - Strawberry Wine
TTITLE6=Brad Paisley - Mud on the Tires
TTITLE7=Florida Georgia Line - Cruise
TTITLE8=Joe Nichols - Tequila Makes Her Clothes Fall Off
TTITLE9=Patty Loveless - Blame It on Your Heart
TTITLE10=Zac Brown Band - Chicken Fried
TTITLE11=Toby Keith - I Wanna Talk About Me (Album Version)
TTITLE12=Rodney Atkins - Watching You
TTITLE13=Martina McBride - I Love You
TTITLE14=John Michael Montgomery - I Swear (Remastered LP Version)
TTITLE15=Brooks and Dunn - Boot Scootin' Boogie
TTITLE16=Billy Ray Cyrus - Achy Breaky Heart
TTITLE17=Trace Adkins - Ladies Love Country Boys
TTITLE18=Sugarland - Want To
TTITLE19=Gary Allan - Nothing On But The Radio
TTITLE20=Tracy Lawrence - Time Marches On (2007 Remastered Album Versi
TTITLE20=on))
TTITLE21=Phil Vassar - In a Real Love
EXTD=
EXTT0=
EXTT1=
EXTT2=
EXTT3=
EXTT4=
EXTT5=
EXTT6=
EXTT7=
EXTT8=
EXTT9=
EXTT10=
EXTT11=
EXTT12=
EXTT13=
EXTT14=
EXTT15=
EXTT16=
EXTT17=
EXTT18=
EXTT19=
EXTT20=
EXTT21=
PLAYORDER=
